<?xml version="1.0" standalone="no"?>
<!DOCTYPE svg PUBLIC "-//W3C//DTD SVG 20010904//EN"
 "http://www.w3.org/TR/2001/REC-SVG-20010904/DTD/svg10.dtd">
<svg version="1.0" xmlns="http://www.w3.org/2000/svg"
 width="1280.000000pt" height="1280.000000pt" viewBox="0 0 1280.000000 1280.000000"
 preserveAspectRatio="xMidYMid meet">
<metadata>
Created by potrace 1.14, written by Peter Selinger 2001-2017
</metadata>
<g transform="translate(0.000000,1280.000000) scale(0.100000,-0.100000)"
fill="#000000" stroke="none">
<path d="M258 10234 c-37 -20 -46 -58 -22 -101 23 -44 53 -65 244 -169 579
-318 1324 -859 2010 -1458 983 -860 1468 -1502 1635 -2166 81 -323 135 -754
150 -1200 7 -191 -7 -512 -26 -615 -28 -155 -163 -381 -319 -537 -54 -54 -103
-98 -109 -98 -6 0 -37 21 -69 47 -296 242 -959 527 -1312 565 -120 13 -193 5
-221 -23 -42 -42 -12 -84 109 -149 42 -23 113 -65 158 -95 76 -50 110 -75 249
-188 174 -142 349 -346 511 -594 111 -170 276 -394 342 -465 25 -27 43 -50 40
-53 -2 -3 -51 5 -109 16 -123 24 -235 22 -255 -6 -11 -14 -7 -24 21 -63 80
-113 63 -217 -46 -272 -65 -34 -284 -21 -335 19 -38 30 -51 26 -65 -16 -23
-71 -16 -144 19 -195 63 -92 220 -194 326 -213 37 -6 41 -4 92 50 30 31 54 63
54 70 0 18 50 56 62 49 28 -18 -27 -182 -79 -236 -43 -45 -27 -58 74 -58 159
1 288 25 325 62 19 19 20 28 15 127 -4 58 -13 132 -20 163 -8 32 -11 58 -6 58
5 0 32 -15 61 -34 83 -53 211 -114 303 -145 73 -24 91 -35 130 -79 25 -27 80
-76 122 -108 99 -74 103 -79 103 -132 0 -85 -66 -166 -163 -200 -27 -9 -52
-23 -55 -30 -8 -21 58 -81 128 -115 58 -29 74 -32 155 -32 100 0 123 9 177 71
17 19 34 31 39 28 13 -7 11 -143 -2 -204 -15 -69 -6 -77 67 -61 85 19 173 69
212 121 39 51 39 81 2 186 -11 32 -18 59 -17 61 2 2 38 -6 81 -17 237 -60 579
-74 781 -31 351 74 569 231 818 588 72 102 132 156 235 211 94 50 166 76 268
97 l73 15 138 -138 c234 -235 413 -343 663 -401 47 -11 191 -29 320 -41 284
-25 412 -50 1025 -198 518 -126 647 -151 703 -134 38 11 40 10 134 -51 197
-130 596 -326 680 -335 105 -10 131 48 98 214 -153 774 -471 1184 -1060 1370
-461 144 -629 208 -713 270 -46 33 -48 37 -40 67 13 50 7 168 -9 208 -15 33
-14 36 8 63 31 35 31 77 0 142 -94 202 -329 257 -464 110 l-48 -53 -39 34
c-51 43 -197 117 -283 143 -49 14 -86 35 -137 76 -77 62 -295 254 -295 260 0
7 146 218 224 324 292 399 772 928 1021 1126 177 141 547 395 580 398 20 2
140 -149 181 -227 80 -155 170 -289 201 -302 25 -9 97 68 129 139 52 115 34
289 -38 363 -39 40 -36 43 27 33 73 -12 153 -63 295 -189 69 -61 131 -111 138
-111 22 0 71 120 83 205 12 90 4 216 -17 256 -44 86 -132 114 -347 112 -88 0
-155 3 -150 7 14 14 441 224 563 278 536 235 726 277 1370 303 520 20 545 25
538 92 -6 64 -71 76 -723 138 -295 29 -1067 10 -1302 -30 -232 -40 -588 -128
-848 -210 -131 -41 -155 -46 -171 -34 -28 20 -45 16 -115 -27 -69 -44 -148
-84 -154 -78 -2 2 21 41 51 87 78 120 84 169 24 190 -45 15 -57 6 -116 -85
-58 -91 -171 -217 -188 -211 -6 2 -14 32 -18 67 -12 104 -74 174 -129 146 -26
-13 -27 -20 -14 -132 6 -48 4 -67 -10 -94 -9 -18 -20 -53 -24 -78 l-6 -44
-120 -47 c-206 -81 -479 -222 -665 -342 -41 -26 -76 -46 -77 -45 -2 2 19 81
46 177 28 96 57 214 65 262 9 48 22 100 30 115 8 15 26 65 41 110 15 45 33 89
41 96 8 8 14 30 14 50 0 33 -3 36 -40 46 l-40 11 0 85 c0 73 4 92 27 137 24
44 28 64 28 134 0 80 1 83 27 94 49 20 55 37 23 63 l-28 23 11 70 c14 82 1
141 -42 197 -21 29 -23 36 -11 46 29 24 30 110 1 110 -8 0 -19 -7 -26 -15 -22
-27 -46 -17 -66 28 -41 91 -110 146 -219 173 -49 12 -86 29 -122 56 -55 42
-153 87 -189 88 -12 0 -42 11 -67 24 -66 36 -142 56 -207 56 -62 0 -204 -33
-227 -52 -12 -10 -21 -4 -50 30 -42 51 -58 53 -73 8 -14 -45 -32 -59 -112 -91
-38 -15 -86 -40 -107 -56 l-40 -28 -8 23 c-7 20 -12 22 -41 14 -46 -12 -109
-78 -118 -123 -4 -21 -14 -39 -23 -41 -96 -28 -172 -99 -194 -181 -13 -52 -19
-53 -46 -10 -25 41 -131 143 -191 184 -97 65 -128 76 -206 70 -137 -10 -266
-80 -402 -215 l-94 -94 -16 24 c-320 457 -1644 1287 -2702 1694 -589 226
-1623 489 -2274 579 -135 18 -173 18 -208 -1z m220 -99 c673 -169 1399 -421
2017 -700 798 -361 1472 -759 2015 -1190 385 -306 596 -535 719 -782 70 -140
76 -187 76 -593 -1 -370 -5 -436 -57 -945 -49 -470 -45 -808 18 -1430 23 -229
47 -364 123 -685 38 -162 77 -335 85 -385 9 -49 23 -115 31 -145 23 -85 28
-80 -97 -80 -239 0 -576 64 -788 149 -164 67 -269 124 -509 280 -35 22 -69 41
-74 41 -6 0 10 -14 35 -30 25 -17 52 -37 58 -45 7 -8 17 -15 22 -15 5 0 42
-24 81 -53 207 -154 530 -291 787 -336 36 -6 113 -20 171 -30 128 -23 377 -19
386 6 7 18 -38 238 -137 673 -84 368 -106 504 -142 900 -29 323 -32 837 -6
1065 73 626 98 1263 59 1483 -36 201 -233 494 -497 738 -388 358 -862 688
-1484 1034 -211 117 -540 286 -680 350 -52 24 -122 55 -155 70 -481 220 -1060
431 -1602 586 -134 38 -236 70 -228 72 31 7 484 -92 910 -199 671 -168 1122
-325 1620 -561 1021 -485 1837 -1033 2170 -1457 26 -34 55 -61 64 -60 9 0 37
28 62 62 117 158 308 267 469 267 40 0 133 -53 203 -117 52 -46 139 -144 134
-149 -2 -3 -60 3 -128 12 -168 22 -226 16 -320 -29 -137 -66 -309 -225 -309
-285 0 -23 1 -23 73 -15 132 15 414 10 431 -7 37 -39 74 -220 61 -300 -9 -54
-30 -53 -125 7 -134 83 -260 121 -375 111 l-40 -3 -6 -215 c-4 -118 -15 -318
-25 -445 -23 -282 -26 -1063 -6 -1355 61 -889 185 -1453 432 -1970 144 -300
167 -406 137 -628 -9 -70 -20 -139 -23 -154 -9 -41 12 -35 35 10 50 98 72 315
43 416 -6 22 -9 42 -7 46 6 10 136 -19 249 -55 104 -33 118 -31 316 42 245 90
295 124 348 237 51 107 122 180 228 232 74 37 80 38 180 38 121 -1 141 16 43
35 -74 15 -177 6 -238 -20 -25 -11 -48 -16 -52 -12 -14 16 -98 241 -127 343
-90 316 -125 545 -120 775 3 147 5 164 28 210 22 43 29 50 58 53 50 5 95 -30
219 -170 229 -259 314 -350 508 -543 110 -110 231 -222 268 -250 l68 -49 -74
-16 c-145 -31 -237 -121 -303 -296 -42 -111 -25 -132 25 -31 37 75 124 187
166 214 58 38 127 57 200 57 186 -1 445 -143 488 -269 19 -55 32 -42 32 30 0
67 18 99 81 144 41 29 119 38 182 22 80 -22 172 -130 172 -202 0 -50 -11 -54
-45 -18 -74 76 -201 49 -289 -62 -27 -34 -47 -49 -63 -49 -26 0 -30 -12 -8
-30 10 -8 15 -31 15 -64 0 -28 9 -70 20 -93 21 -48 93 -124 139 -148 32 -16
250 -69 258 -62 2 2 -23 14 -57 27 -33 12 -60 25 -60 29 0 3 20 18 43 32 l42
25 40 -29 c78 -57 223 -119 455 -193 465 -149 506 -166 662 -270 322 -214 527
-576 634 -1117 31 -153 28 -177 -21 -177 -68 0 -490 213 -720 364 -366 241
-663 388 -920 456 -501 134 -729 212 -969 331 -118 59 -290 166 -344 215 -170
152 -259 283 -307 448 -13 45 -21 57 -41 62 -60 15 -141 -22 -181 -82 -25 -39
-9 -39 47 0 37 26 63 36 90 36 l37 0 23 -69 c91 -286 370 -531 817 -721 179
-77 345 -131 652 -215 275 -75 341 -97 493 -166 161 -72 488 -254 488 -270 0
-27 -139 -3 -525 91 -647 158 -696 170 -865 201 -58 11 -190 26 -295 34 -394
31 -553 81 -773 244 -248 184 -440 430 -482 619 -8 34 -17 52 -27 52 -10 0
-13 6 -8 18 4 11 3 13 -3 7 -6 -6 -5 -39 4 -90 18 -104 29 -137 70 -212 l33
-62 -37 -6 c-71 -12 -207 -57 -282 -95 -133 -67 -188 -116 -291 -262 -250
-354 -496 -511 -879 -558 -461 -56 -1102 131 -1415 414 l-50 45 95 1 c142 0
221 26 346 111 83 56 182 187 155 203 -4 3 -22 -14 -39 -38 -84 -117 -306
-226 -461 -226 -205 0 -541 146 -732 318 -71 64 -76 29 -8 -58 48 -62 83 -216
77 -341 l-3 -64 -40 -13 c-54 -18 -235 -31 -235 -17 0 6 4 15 10 21 19 19 50
128 50 174 0 31 5 52 16 61 19 16 44 63 44 84 0 21 -23 19 -45 -5 -9 -10 -44
-30 -77 -42 -33 -13 -69 -34 -79 -48 -11 -14 -38 -49 -60 -78 -46 -61 -49 -61
-149 -16 -128 58 -220 155 -220 231 0 23 2 43 4 43 2 0 21 -6 42 -14 67 -23
263 -31 309 -12 139 59 197 195 131 311 -14 26 -26 49 -26 51 0 9 90 2 165
-11 220 -40 335 -30 542 49 146 55 205 66 354 66 139 0 265 -28 378 -84 84
-41 81 -40 81 -22 0 17 -74 66 -155 102 -171 76 -429 83 -604 18 -184 -69
-241 -86 -309 -91 -86 -7 -84 -9 -201 137 -100 124 -125 160 -271 380 -68 102
-155 226 -195 275 -195 244 -444 462 -690 605 -160 94 -174 103 -169 112 9 14
167 9 255 -8 235 -44 742 -244 944 -373 22 -14 56 -33 75 -43 39 -20 172 -117
210 -153 51 -48 71 -48 131 -1 188 148 387 454 426 653 20 108 29 670 14 886
-65 894 -205 1345 -582 1879 -419 591 -1372 1473 -2329 2153 -386 274 -641
434 -1032 649 -61 33 -98 67 -98 88 0 13 11 11 198 -37z m6923 -1724 l-25 -19
61 0 c84 0 143 -11 137 -25 -3 -8 -29 -11 -84 -8 -57 2 -96 -2 -131 -13 -61
-20 -70 -15 -40 24 26 36 24 37 -44 5 -51 -25 -135 -107 -135 -134 0 -6 -7
-11 -15 -11 -14 0 -13 4 0 38 46 108 122 160 240 161 l60 1 -24 -19z m-330
-82 c-20 -94 -1 -210 44 -259 13 -14 13 -19 3 -23 -7 -2 -23 7 -35 22 -17 20
-22 22 -23 9 0 -9 4 -19 9 -22 4 -3 11 -24 15 -47 9 -54 30 -96 74 -141 40
-42 38 -45 -16 -22 -46 19 -87 57 -115 107 -11 20 -25 37 -30 37 -14 0 3 -62
29 -102 31 -49 32 -48 -24 -48 -55 0 -138 -22 -167 -45 -18 -13 -14 -14 53 -8
48 4 72 2 72 -5 0 -14 -109 -49 -200 -63 -105 -16 -105 -25 -3 -38 48 -7 94
-13 101 -14 19 -3 -91 -109 -138 -133 -45 -23 -45 -25 13 -43 28 -10 37 -18
37 -34 -1 -31 -33 -98 -58 -121 -21 -18 -23 -18 -49 -1 -14 10 -41 33 -58 52
l-31 34 -41 -40 c-49 -49 -57 -50 -73 -11 -9 23 -16 28 -25 20 -17 -14 -25 17
-25 104 0 58 -2 67 -16 62 -12 -5 -14 -1 -8 17 5 12 8 41 8 65 0 35 3 42 19
42 15 0 18 5 13 23 -15 49 -19 97 -7 97 6 0 11 15 11 34 0 30 -2 33 -25 28
-15 -2 -25 0 -25 7 0 7 4 10 9 7 5 -4 5 10 1 32 l-9 37 19 -22 c24 -30 29 -29
41 7 6 17 15 30 19 30 4 0 6 9 3 19 -8 30 35 96 77 120 58 32 68 25 22 -15
-65 -55 -95 -122 -47 -104 21 8 25 6 26 -8 0 -14 2 -14 9 3 5 11 9 16 9 10 1
-5 20 -11 43 -13 23 -1 47 -7 52 -11 6 -5 20 -11 31 -13 14 -3 3 -11 -38 -26
-72 -28 -107 -28 -141 -1 -15 12 -28 20 -30 18 -42 -49 -31 -142 19 -175 30
-20 45 -12 21 11 -9 10 -16 33 -16 55 l0 39 28 -15 c47 -24 90 -17 166 28 63
37 79 42 156 47 63 5 79 9 61 15 -18 6 -21 10 -10 17 11 7 11 9 1 9 -7 0 -10
5 -7 10 3 6 -1 10 -9 10 -9 0 -16 5 -16 11 0 6 -7 8 -17 5 -10 -4 -14 -4 -10
0 4 4 1 14 -6 22 -11 13 -9 14 13 2 l25 -13 -22 24 c-15 17 -20 32 -16 47 6
26 25 29 43 7 7 -9 18 -14 24 -12 6 2 17 -2 24 -10 8 -7 36 -13 67 -13 60 0
75 21 51 69 -16 31 -27 78 -28 120 -1 38 -9 39 -29 4 -26 -45 -30 -79 -15
-125 17 -47 14 -57 -9 -38 -48 40 -59 124 -22 177 12 18 25 33 28 33 3 0 28
28 55 61 55 69 65 62 45 -32z m550 13 c-7 -2 -18 1 -23 6 -8 8 -4 9 13 5 13
-4 18 -8 10 -11z m-733 -69 c-36 -38 -71 -85 -78 -105 -18 -48 -30 -49 -30 -3
0 66 30 106 114 152 65 35 64 28 -6 -44z m777 46 c12 -18 -3 -22 -20 -5 -14
14 -14 16 -1 16 8 0 18 -5 21 -11z m22 -11 c-3 -8 -6 -5 -6 6 -1 11 2 17 5 13
3 -3 4 -12 1 -19z m-190 -4 c44 -8 104 -36 150 -71 19 -15 34 -20 38 -14 11
19 25 12 25 -11 1 -14 25 -49 60 -86 43 -46 57 -57 53 -40 l-5 23 21 -23 c26
-30 36 -84 24 -125 -9 -28 -11 -30 -17 -12 -12 31 -29 65 -32 62 -1 -1 1 -36
5 -77 5 -54 9 -69 14 -53 5 12 17 25 28 28 10 4 19 13 19 21 0 8 5 14 10 14 6
0 10 9 10 20 0 12 5 17 14 14 8 -3 16 3 19 15 3 12 10 21 17 21 6 0 9 -4 6 -9
-4 -5 2 -7 13 -4 13 3 17 11 13 25 -8 30 -97 115 -156 149 -61 34 -91 63 -81
78 7 12 54 15 81 4 16 -6 16 -7 -1 -13 -15 -5 -9 -13 36 -43 30 -20 70 -53 90
-74 32 -34 42 -52 64 -118 5 -16 8 -17 15 -5 8 13 10 12 10 -2 0 -11 5 -15 14
-12 8 3 17 0 21 -5 3 -6 10 -9 15 -6 23 14 -16 -61 -50 -96 -39 -41 -78 -54
-65 -21 16 38 18 122 3 122 -21 0 -44 -29 -58 -75 -7 -22 -24 -53 -39 -68 -27
-30 -139 -92 -148 -83 -6 6 16 154 25 170 2 4 8 2 13 -5 15 -23 10 20 -9 79
-29 91 -151 215 -269 274 -35 17 -63 35 -63 40 0 6 6 8 14 5 8 -3 32 -9 53
-13z m218 -4 c3 -5 4 -10 1 -10 -3 0 -8 5 -11 10 -3 6 -4 10 -1 10 3 0 8 -4
11 -10z m-265 -25 c0 -3 -2 -5 -5 -5 -3 0 -5 2 -5 5 0 3 2 5 5 5 3 0 5 -2 5
-5z m-146 -38 c8 -32 72 -100 142 -150 52 -38 65 -55 90 -111 32 -74 39 -79
48 -36 6 31 -17 95 -41 115 -7 6 -13 17 -15 25 -2 8 -12 19 -23 25 -11 6 -19
18 -19 27 1 10 -4 14 -12 11 -8 -3 -14 -1 -14 4 0 6 -20 31 -45 56 -44 46 -55
67 -35 67 6 0 10 -7 10 -15 0 -8 5 -15 10 -15 6 0 10 7 10 16 0 13 3 14 13 5
8 -6 18 -7 22 -3 5 4 5 2 1 -5 -3 -6 -2 -14 4 -18 5 -3 10 -15 10 -25 0 -10 6
-21 13 -23 9 -4 8 -8 -3 -17 -13 -10 -13 -11 1 -7 11 4 48 -24 108 -81 l92
-87 1 -55 c2 -71 -31 -150 -62 -150 -44 0 -80 30 -105 87 -26 57 -32 82 -14
50 17 -29 30 -9 15 21 -13 24 -39 52 -152 158 -22 21 -84 134 -84 153 0 19 28
0 34 -22z m53 16 c-4 -3 -7 0 -7 7 0 7 3 10 7 7 3 -4 3 -10 0 -14z m-653 -43
c-10 -59 18 -121 74 -171 l47 -42 -55 7 c-30 4 -77 18 -104 32 l-49 24 7 -40
c8 -54 -16 -55 -34 0 -11 34 -11 42 4 65 20 31 24 31 53 3 29 -27 35 -21 24
20 -10 35 -7 71 10 115 17 40 30 33 23 -13z m466 35 c0 -3 -2 -5 -5 -5 -3 0
-5 2 -5 5 0 3 2 5 5 5 3 0 5 -2 5 -5z m-449 -28 c-10 -9 -11 -8 -5 6 3 10 9
15 12 12 3 -3 0 -11 -7 -18z m840 -44 c2 1 3 0 2 -2 -1 -2 17 -16 41 -31 40
-26 80 -65 45 -45 -57 33 -156 108 -168 126 -9 16 0 11 31 -14 25 -20 47 -36
49 -34z m446 35 c32 -12 65 -34 87 -58 49 -55 45 -70 -6 -28 -50 41 -106 71
-165 88 -24 7 -43 17 -43 21 0 11 67 -1 127 -23z m-677 17 c0 -3 -2 -5 -5 -5
-3 0 -5 2 -5 5 0 3 2 5 5 5 3 0 5 -2 5 -5z m-582 -40 c-3 -3 -9 2 -12 12 -6
14 -5 15 5 6 7 -7 10 -15 7 -18z m538 -63 c4 -20 15 -53 24 -72 23 -45 80
-108 80 -89 1 21 79 -69 106 -123 27 -54 23 -58 -26 -25 -19 13 -65 36 -103
51 -37 16 -80 40 -96 55 -16 14 -40 36 -55 48 -36 31 -43 67 -21 122 9 25 19
57 22 71 10 52 12 54 38 26 13 -14 27 -43 31 -64z m-389 -29 c-4 -3 -7 0 -7 7
0 7 3 10 7 7 3 -4 3 -10 0 -14z m53 -8 c0 -3 -2 -5 -5 -5 -3 0 -5 2 -5 5 0 3
2 5 5 5 3 0 5 -2 5 -5z m70 0 c0 -3 -2 -5 -5 -5 -3 0 -5 2 -5 5 0 3 2 5 5 5 3
0 5 -2 5 -5z m120 0 c0 -3 -2 -5 -5 -5 -3 0 -5 2 -5 5 0 3 2 5 5 5 3 0 5 -2 5
-5z m995 -35 c12 -11 41 -26 66 -34 l44 -13 -37 -18 c-40 -20 -47 -32 -24 -41
7 -3 12 -15 12 -27 -1 -12 1 -34 5 -50 7 -24 3 -30 -29 -52 -36 -23 -102 -44
-102 -32 0 4 10 25 22 48 11 23 23 63 26 90 4 43 6 46 19 33 9 -8 18 -12 21
-9 4 3 0 10 -8 15 -13 8 -12 10 3 10 33 0 16 20 -23 26 -44 7 -60 21 -39 35 9
6 1 9 -25 9 -37 0 -39 1 -20 15 27 20 64 18 89 -5z m-991 -41 c9 -21 15 -27
19 -18 4 10 6 9 6 -3 1 -10 10 -22 21 -28 19 -10 57 -70 45 -70 -25 0 -125
115 -125 143 0 19 23 3 34 -24z m433 -36 c-4 -3 -10 -3 -14 0 -3 4 0 7 7 7 7
0 10 -3 7 -7z m-107 -18 c0 -3 -2 -5 -5 -5 -3 0 -5 2 -5 5 0 3 2 5 5 5 3 0 5
-2 5 -5z m40 -30 c0 -3 -2 -5 -5 -5 -3 0 -5 2 -5 5 0 3 2 5 5 5 3 0 5 -2 5 -5z
m752 -43 c19 -31 20 -42 14 -135 -4 -56 -12 -105 -18 -108 -7 -4 -3 -9 8 -12
18 -4 17 -5 -1 -6 -35 -2 -69 86 -37 97 7 2 10 -2 6 -11 -3 -8 -1 -18 5 -22 7
-4 11 9 11 36 0 40 -1 42 -15 23 -13 -17 -16 -17 -26 -4 -9 13 -10 12 -5 -2 3
-10 1 -18 -4 -18 -6 0 -10 9 -10 20 0 11 6 20 14 20 7 0 16 10 20 23 9 36 7
117 -4 117 -5 0 -10 4 -10 8 0 22 33 5 52 -26z m-2050 -3 c146 -14 155 -17
138 -48 -6 -12 -12 -50 -14 -84 -1 -34 -11 -90 -20 -125 -19 -70 -16 -98 19
-182 13 -30 31 -106 40 -169 l16 -113 -24 -27 c-35 -38 -46 -62 -53 -122 -22
-196 156 -459 312 -461 39 -1 45 -4 50 -27 22 -95 38 -150 56 -184 l20 -40
-24 7 c-12 4 -61 10 -108 13 -101 6 -154 -10 -170 -53 -6 -15 -35 -51 -66 -81
l-55 -55 -59 7 c-129 15 -209 -37 -495 -320 l-165 -164 0 377 c0 289 6 468 25
767 14 215 25 429 25 478 l0 87 51 0 c70 0 190 -43 269 -95 106 -70 162 -83
200 -45 17 17 20 33 20 123 -1 164 -43 295 -104 318 -42 16 -265 23 -351 11
-38 -5 -72 -7 -75 -5 -3 3 27 34 65 70 93 86 248 166 309 159 22 -3 98 -10
168 -17z m1003 -129 c39 -14 72 -20 94 -16 25 4 57 -3 106 -21 92 -35 277 -39
364 -9 62 21 324 24 348 4 21 -17 60 -156 71 -248 13 -115 4 -310 -14 -310
-14 0 -20 6 -77 74 -65 79 -172 87 -319 24 -39 -17 -48 -25 -48 -45 0 -22 4
-25 28 -20 15 2 59 10 98 18 58 10 82 10 128 0 66 -15 90 -37 29 -26 -56 9
-193 -12 -271 -41 -75 -28 -157 -31 -217 -8 -109 43 -213 65 -313 68 -57 2
-105 6 -108 9 -3 3 21 11 52 17 66 14 148 8 230 -16 62 -18 84 -14 84 14 0 36
-164 92 -267 92 -77 0 -107 -14 -163 -77 -34 -40 -52 -51 -103 -65 -81 -23
-165 -24 -174 -2 -11 28 17 120 50 165 30 40 32 50 36 139 3 95 3 95 43 138
22 24 46 58 54 77 11 26 23 37 61 49 27 9 59 23 73 31 28 17 40 15 125 -15z
m4845 -584 c190 -17 508 -53 553 -62 15 -3 27 -9 27 -14 0 -14 -61 -18 -395
-30 -734 -26 -927 -65 -1437 -291 -259 -115 -704 -343 -746 -383 -23 -22 -3
-49 32 -42 17 3 108 8 201 12 230 9 323 -10 370 -74 36 -49 23 -334 -17 -358
-8 -5 -146 110 -189 157 -24 26 -118 84 -169 103 -64 24 -283 20 -288 -6 -2
-12 15 -25 60 -47 71 -34 101 -58 123 -102 22 -42 30 -144 16 -209 -13 -59
-58 -135 -81 -135 -20 0 -89 102 -149 220 -28 55 -69 123 -92 150 -76 92 -130
145 -146 145 -32 0 -436 -267 -588 -388 -125 -100 -302 -262 -396 -364 -330
-358 -615 -710 -820 -1012 l-73 -108 -59 63 c-33 35 -108 114 -167 175 -59 62
-124 132 -144 158 l-38 45 50 188 c28 103 54 202 57 220 6 30 11 33 63 43 257
52 460 118 787 258 l180 76 99 96 c150 145 344 357 387 422 20 32 40 76 44 97
4 24 22 55 51 88 24 28 44 60 44 70 0 14 12 22 45 31 24 6 69 28 99 47 l56 36
122 -2 c112 -1 124 1 139 20 18 22 15 64 -6 81 -6 5 -38 13 -70 16 -116 13
-118 18 -15 44 110 27 126 33 141 61 14 28 -6 77 -35 84 -11 3 -66 -3 -120
-15 -55 -11 -101 -19 -102 -17 -2 2 35 30 82 62 47 31 99 71 115 88 24 24 61
40 172 74 256 78 616 168 842 208 235 43 1011 54 1385 21z m-4700 -13 c41 -8
82 -19 90 -25 16 -10 15 -10 -70 12 -58 15 -262 15 -335 0 -37 -8 -67 -21 -83
-37 -13 -13 -25 -23 -26 -21 0 2 -7 13 -13 25 -12 21 -10 23 25 33 40 11 137
28 192 33 52 5 136 -2 220 -20z m785 -20 c118 -28 155 -43 155 -64 0 -22 -15
-26 -23 -6 -8 21 -131 55 -239 67 -92 9 -212 -1 -270 -25 -10 -4 -18 -5 -18
-2 0 11 108 41 170 47 78 8 145 3 225 -17z m-1619 -12 c38 -23 74 -68 109
-138 25 -50 28 -53 65 -53 67 0 70 4 70 87 0 73 1 75 23 69 12 -3 34 -6 49 -6
38 0 55 -22 67 -88 37 -194 101 -267 257 -292 83 -14 172 -5 236 22 96 41 179
169 165 254 -6 39 11 54 60 54 41 0 53 -17 53 -76 0 -29 9 -80 19 -115 22 -75
45 -250 36 -279 -10 -30 -57 -59 -103 -61 -23 -2 -42 -7 -42 -12 0 -16 108 -2
128 16 10 9 25 17 33 17 41 0 51 56 20 117 -10 21 -22 58 -25 83 l-7 45 28
-27 c56 -52 90 -63 198 -63 83 0 107 4 144 22 25 12 46 21 47 20 10 -10 -107
-422 -137 -482 -32 -62 -127 -190 -136 -182 -9 10 10 77 22 77 14 0 20 20 30
108 4 28 11 49 16 46 16 -10 9 80 -10 121 -33 72 -48 79 -143 69 -135 -14
-302 -8 -412 15 -204 44 -274 12 -291 -133 -7 -51 -6 -58 8 -53 13 5 16 -6 16
-74 1 -104 24 -197 41 -168 6 9 11 2 18 -22 5 -21 5 -35 -1 -38 -16 -6 -263
168 -312 220 -71 76 -115 179 -151 357 -4 20 -10 22 -67 22 -81 0 -122 25
-187 113 -65 90 -93 163 -94 252 -1 84 16 130 58 156 39 24 63 24 102 0z m279
9 c62 -6 55 -7 -55 -7 -69 0 -138 3 -155 7 -39 10 114 10 210 0z m485 0 c156
-21 214 -56 223 -137 17 -154 -112 -263 -298 -251 -154 10 -245 104 -245 252
0 88 40 121 163 135 39 5 74 9 77 9 3 1 39 -3 80 -8z m190 -15 c0 -3 -2 -5 -5
-5 -3 0 -5 2 -5 5 0 3 2 5 5 5 3 0 5 -2 5 -5z m612 -21 c102 -24 98 -18 87
-164 -12 -142 -16 -150 -94 -186 -68 -32 -179 -33 -243 -3 -47 23 -95 86 -107
141 -9 41 -1 44 32 13 96 -92 239 -82 336 24 l38 41 -23 31 c-12 16 -43 43
-67 60 -104 68 -182 60 -268 -28 -54 -55 -67 -52 -43 11 27 72 182 99 352 60z
m-582 11 c0 -3 -2 -5 -5 -5 -3 0 -5 2 -5 5 0 3 2 5 5 5 3 0 5 -2 5 -5z m120
-25 l65 -7 -60 -1 c-34 -1 -73 5 -90 13 -24 12 -25 14 -5 8 14 -3 54 -9 90
-13z m110 15 c0 -3 -2 -5 -5 -5 -3 0 -5 2 -5 5 0 3 2 5 5 5 3 0 5 -2 5 -5z
m1720 -21 c0 -20 -35 -88 -80 -154 -52 -77 -72 -119 -66 -137 10 -25 51 -8
179 73 112 71 147 83 147 51 0 -19 -28 -42 -157 -131 -165 -113 -156 -130 48
-90 99 19 144 23 151 16 15 -15 3 -39 -24 -45 -124 -29 -262 -67 -271 -76 -23
-23 14 -38 128 -51 112 -12 152 -28 123 -47 -7 -4 -67 -8 -133 -8 l-120 0 -55
-36 c-80 -52 -131 -68 -145 -43 -18 33 -139 156 -169 171 l-29 15 6 82 c3 46
15 105 26 134 23 58 26 108 10 165 -12 45 -5 61 20 47 24 -12 49 -76 55 -138
2 -28 15 -69 27 -93 25 -49 32 -140 11 -161 -14 -14 -16 -48 -2 -48 35 0 57
103 38 170 l-14 45 47 36 c41 33 114 124 191 238 27 40 58 48 58 15z m-1750
11 c0 -3 -2 -5 -5 -5 -3 0 -5 2 -5 5 0 3 2 5 5 5 3 0 5 -2 5 -5z m285 -45 c23
-11 53 -33 68 -48 l27 -28 -22 -34 c-52 -76 -165 -97 -251 -47 -67 39 -76 61
-41 98 35 37 44 36 44 0 0 -43 9 -60 41 -77 36 -18 73 -10 99 23 29 37 25 70
-11 104 -38 36 -17 40 46 9z m-95 -5 c17 -20 5 -45 -20 -45 -11 0 -23 7 -26
15 -6 15 11 45 26 45 4 0 13 -7 20 -15z m1058 -418 c3 -14 -1 -16 -22 -7 -23
8 -32 4 -86 -44 -33 -29 -73 -56 -89 -59 -37 -8 -181 -137 -358 -321 l-128
-134 -140 -45 c-132 -42 -334 -116 -417 -151 -70 -30 -42 7 32 42 75 36 195
140 255 222 33 45 90 86 222 161 23 13 81 47 130 75 102 60 276 150 348 181
28 12 91 40 140 62 95 43 108 45 113 18z m38 -90 c74 -55 164 -153 164 -179 0
-23 -70 -110 -85 -105 -6 3 -10 -15 -10 -42 0 -80 -78 -179 -372 -467 l-134
-131 -127 -56 c-274 -121 -493 -199 -712 -252 -151 -36 -143 -38 -135 44 7 74
-5 101 -24 53 -6 -15 -40 -139 -76 -277 -79 -307 -76 -295 -84 -294 -3 0 -31
30 -62 67 l-57 67 16 99 c9 59 18 93 23 85 4 -8 11 -10 14 -7 4 4 17 3 30 -2
28 -11 111 43 118 76 4 21 2 21 -67 -7 -59 -25 -72 -27 -83 -16 -17 17 -4 56
31 98 13 16 26 33 28 40 3 8 15 8 48 -2 57 -16 55 -14 36 -41 -21 -30 -20 -37
3 -31 21 5 37 33 20 33 -6 0 -8 4 -5 9 8 12 -8 54 -29 74 -21 21 -59 22 -79 1
-9 -8 -16 -12 -16 -7 0 4 -5 1 -10 -7 -12 -17 -7 10 16 100 26 98 32 107 72
115 84 15 153 44 194 83 26 24 29 24 46 9 24 -22 48 -22 57 0 6 17 -36 63 -57
63 -5 0 -8 17 -8 38 0 43 -30 29 303 143 186 65 210 71 232 59 24 -13 32 -5
272 237 273 275 289 287 360 259 l38 -15 -27 21 -27 21 47 43 c26 24 50 43 53
44 4 0 33 -20 65 -43z m-1226 28 c0 -3 -2 -5 -5 -5 -3 0 -5 2 -5 5 0 3 2 5 5
5 3 0 5 -2 5 -5z m-480 -126 c83 -27 471 -40 528 -18 30 12 59 3 72 -21 20
-38 -58 -225 -126 -300 -58 -64 -132 -75 -149 -21 -4 14 -18 20 -53 23 -41 4
-50 1 -74 -24 -68 -71 -181 1 -263 168 -78 157 -53 230 65 193z m-539 -177
c28 -7 85 -67 72 -75 -5 -2 -42 4 -83 14 -41 10 -93 19 -115 19 -44 0 -67 14
-58 36 7 19 -11 18 -27 -1 -20 -24 8 -55 122 -141 132 -99 195 -157 190 -175
-3 -8 -1 -11 3 -7 4 4 19 -4 33 -18 15 -13 30 -24 34 -24 5 0 8 -6 8 -14 0 -8
18 -23 40 -34 22 -10 37 -22 34 -25 -3 -3 3 -10 14 -16 11 -6 22 -7 26 -4 3 3
6 1 6 -6 0 -7 4 -9 10 -6 6 4 7 -1 3 -11 -5 -13 -2 -16 9 -12 9 4 28 -5 45
-20 54 -49 216 -151 176 -111 -9 9 12 20 83 45 106 36 129 49 173 96 46 49 37
55 -14 10 -49 -43 -92 -67 -140 -77 -28 -6 -26 -3 25 44 30 28 70 55 88 61 47
17 39 29 -12 18 -35 -7 -51 -6 -75 6 -16 9 -37 16 -46 16 -8 0 -15 5 -15 11 0
6 11 8 29 4 52 -11 212 -21 217 -13 3 4 10 8 16 8 7 0 9 -27 6 -80 -6 -111
-38 -142 -176 -173 -21 -5 -23 -3 -17 20 6 24 4 25 -22 18 -15 -3 -28 -7 -28
-8 0 -15 -27 -43 -44 -45 -24 -4 -29 -22 -6 -22 18 0 19 -18 4 -57 -46 -117
-105 -365 -93 -385 5 -8 -14 -108 -21 -108 -2 0 -23 11 -46 25 -137 78 -228
-45 -229 -307 0 -49 -2 -88 -4 -88 -1 0 -81 20 -177 44 -96 24 -186 46 -201
50 -24 5 -31 1 -59 -41 -52 -79 -118 -141 -231 -220 -69 -47 -110 -82 -113
-96 -20 -99 -27 -144 -32 -224 -3 -51 -10 -93 -16 -93 -5 0 -32 14 -59 30 -26
17 -51 30 -54 30 -4 0 -46 28 -94 63 -91 64 -130 116 -130 173 0 37 24 127 74
284 90 278 113 366 120 454 l5 70 126 126 c108 109 125 130 125 158 0 17 -3
32 -8 32 -4 0 -45 -41 -92 -91 -99 -108 -284 -277 -316 -289 -14 -6 -41 -46
-79 -120 -31 -61 -58 -110 -61 -108 -10 11 -54 531 -54 654 l0 60 158 155
c206 201 292 278 350 311 179 105 396 -84 312 -271 -20 -43 -27 -121 -11 -121
21 0 75 133 79 195 l4 63 92 -57 c50 -32 114 -71 142 -88 51 -31 250 -124 292
-137 17 -6 22 -15 22 -41 0 -47 -55 -254 -96 -360 -55 -141 -114 -342 -114
-388 0 -11 8 -17 23 -17 20 0 25 12 56 128 19 70 40 141 47 157 61 141 119
333 130 424 7 63 16 72 52 52 9 -5 40 -12 67 -16 62 -9 52 4 -30 35 -71 27
-79 34 -80 61 0 12 -10 28 -22 36 -22 15 -23 14 -23 -16 0 -37 8 -37 -80 -1
-201 83 -486 253 -515 307 -11 19 -37 50 -59 69 l-40 34 34 35 c19 19 42 37
51 40 10 3 21 19 24 35 12 53 37 63 145 56 52 -3 107 -9 121 -14z m-33 -69
c48 -9 91 -19 95 -23 5 -4 -2 -28 -14 -53 -23 -47 -32 -49 -73 -16 -6 5 -37
29 -68 54 -32 26 -58 48 -58 51 0 7 29 4 118 -13z m182 -59 c24 -28 218 -152
314 -200 88 -44 95 -49 90 -73 -4 -22 3 -31 42 -59 43 -32 45 -35 29 -52 -22
-25 -109 -54 -139 -46 -12 3 -96 67 -187 142 -90 75 -179 146 -196 158 -35 23
-35 25 -2 104 20 45 29 51 49 26z m870 -138 c0 -3 -5 -8 -12 -12 -7 -4 -8 -3
-4 4 7 12 16 16 16 8z m-152 -25 c39 -10 72 -13 72 -8 0 5 6 7 14 4 7 -3 19 0
26 6 9 9 11 8 8 -8 -2 -12 -22 -30 -48 -43 -41 -21 -56 -23 -171 -20 -81 2
-131 7 -141 15 -8 7 -17 10 -21 7 -3 -3 -11 4 -17 16 -16 30 -9 33 67 31 38
-1 82 3 98 8 17 5 32 10 35 10 3 0 38 -8 78 -18z m-668 -96 c0 -3 -2 -5 -5 -5
-3 0 -5 2 -5 5 0 3 2 5 5 5 3 0 5 -2 5 -5z m20 -20 c0 -3 -2 -5 -5 -5 -3 0 -5
2 -5 5 0 3 2 5 5 5 3 0 5 -2 5 -5z m131 -182 c6 -109 -26 -238 -133 -533 -19
-52 -46 -137 -59 -187 -13 -51 -27 -93 -31 -93 -5 0 -8 4 -8 8 0 27 59 226 97
327 63 169 60 162 83 253 11 46 23 119 27 163 3 43 10 79 14 79 5 0 9 -8 10
-17z m309 -55 c0 -6 -16 -59 -35 -117 -19 -58 -44 -135 -55 -171 -17 -57 -19
-60 -13 -20 12 92 79 320 93 320 6 0 10 -5 10 -12z m-113 -405 c-4 -3 -7 0 -7
7 0 7 3 10 7 7 3 -4 3 -10 0 -14z m-12 -116 c-12 -93 -19 -117 -30 -105 -5 5
20 169 30 197 12 32 12 0 0 -92z m-1370 -54 c-10 -43 -48 -177 -85 -298 -38
-121 -71 -237 -75 -258 -4 -20 -10 -39 -14 -42 -4 -2 -19 71 -32 163 l-25 167
64 125 c50 98 76 136 120 178 30 28 57 50 60 48 2 -3 -4 -40 -13 -83z m793
-352 c70 -16 154 -38 186 -48 l60 -18 3 -55 c9 -141 75 -465 135 -663 11 -37
17 -71 14 -75 -15 -14 -196 -13 -296 2 -146 22 -381 90 -505 146 -33 15 -79
35 -103 45 -23 10 -47 24 -52 30 -19 23 16 293 44 337 5 9 46 41 90 70 90 60
186 151 235 221 21 31 38 46 47 43 8 -3 72 -19 142 -35z m-853 -486 c111 -100
489 -278 731 -344 191 -52 443 -75 516 -46 13 5 22 -2 35 -29 16 -35 16 -37
-3 -50 -61 -45 -303 -61 -465 -30 -182 34 -407 121 -626 242 -197 109 -216
124 -237 202 -6 19 -5 21 3 10 9 -12 11 -12 11 -1 0 8 -6 19 -14 25 -7 6 -16
26 -20 44 -7 39 4 35 69 -23z m132 -274 c157 -79 355 -164 457 -197 l70 -22
52 -208 c29 -115 53 -217 53 -226 2 -32 -181 -119 -252 -120 -43 -1 -54 6 -39
24 7 9 6 20 -3 38 -8 14 -15 36 -15 50 0 14 -9 59 -20 100 l-18 75 5 -70 c3
-38 13 -94 24 -122 l19 -53 -23 -5 c-13 -4 -47 -5 -76 -3 l-52 3 -39 92 c-20
51 -45 104 -54 118 -18 27 -14 45 9 45 35 0 117 23 131 37 13 14 17 14 25 2 7
-9 8 14 4 66 -10 121 -3 114 -88 100 -39 -7 -97 -15 -128 -18 l-57 -6 -22 57
c-18 47 -38 105 -105 300 -6 18 -8 18 142 -57z m1206 -283 l23 -53 -59 -58
c-42 -42 -70 -82 -100 -144 -36 -75 -47 -90 -91 -117 -51 -32 -166 -86 -182
-86 -5 0 -43 67 -85 148 -79 152 -135 320 -114 341 7 7 39 5 95 -5 144 -25
392 -16 450 17 28 16 39 9 63 -43z m-979 -64 c8 -70 -5 -88 -75 -103 -90 -20
-93 -18 -127 57 -16 37 -28 69 -27 70 3 3 163 27 206 31 13 1 18 -12 23 -55z
m2826 14 c47 -32 50 -48 8 -41 -48 7 -103 -18 -123 -58 -25 -48 -16 -132 18
-166 30 -30 119 -44 156 -24 26 15 27 7 0 -30 -46 -66 -139 -79 -205 -30 -108
79 -146 176 -91 234 12 13 37 43 56 67 56 70 122 87 181 48z m55 -122 c0 -29
-31 -44 -50 -25 -23 23 -9 51 24 47 18 -2 26 -9 26 -22z m-2798 -183 c-4 -3
-7 0 -7 7 0 7 3 10 7 7 3 -4 3 -10 0 -14z m407 -74 c15 -28 26 -52 26 -54 0
-7 -121 -35 -130 -30 -26 16 -10 60 30 85 22 14 40 30 40 37 0 23 9 14 34 -38z
m-154 -78 c0 -39 -14 -46 -61 -31 -49 16 -49 23 -1 43 54 22 62 21 62 -12z
m-1950 -1177 c58 -28 141 -64 185 -79 44 -15 90 -38 101 -51 23 -23 64 -137
64 -175 0 -37 -41 -80 -104 -110 -84 -40 -96 -39 -85 9 21 92 -7 238 -50 262
-19 10 -51 -14 -51 -37 0 -19 -79 -92 -106 -99 -51 -13 -157 2 -211 30 -29 14
-53 30 -53 34 0 4 20 18 44 31 85 44 146 136 146 218 0 14 3 23 8 21 4 -2 54
-26 112 -54z M5840 8090 c0 -7 3 -10 7 -7 3 4 3 10 0 14 -4 3 -7 0 -7 -7z
M5820 8050 c-13 -24 -10 -85 4 -85 5 0 10 24 11 53 2 58 1 61 -15 32z M5790
7965 c0 -3 2 -5 5 -5 3 0 5 2 5 5 0 3 -2 5 -5 5 -3 0 -5 -2 -5 -5z M5916 7516
c-17 -27 -22 -76 -7 -76 9 0 33 91 27 98 -2 1 -11 -9 -20 -22z M7286 4557
c-25 -30 -70 -127 -62 -134 3 -4 16 3 29 14 12 11 43 30 70 41 l47 22 -26 40
c-31 46 -33 47 -58 17z m44 -42 c0 -3 -2 -5 -5 -5 -3 0 -5 2 -5 5 0 3 2 5 5 5
3 0 5 -2 5 -5z m-60 -30 c0 -3 -2 -5 -5 -5 -3 0 -5 2 -5 5 0 3 2 5 5 5 3 0 5
-2 5 -5z M7418 4276 c-43 -45 -87 -116 -73 -116 2 0 25 13 51 30 26 16 69 37
95 45 27 9 49 20 49 23 -1 9 -58 72 -65 72 -3 0 -28 -24 -57 -54z m49 -23 c-4
-3 -7 0 -7 7 0 7 3 10 7 7 3 -4 3 -10 0 -14z m-37 2 c0 -3 -2 -5 -5 -5 -3 0
-5 2 -5 5 0 3 2 5 5 5 3 0 5 -2 5 -5z m20 -10 c0 -3 -2 -5 -5 -5 -3 0 -5 2 -5
5 0 3 2 5 5 5 3 0 5 -2 5 -5z M3032 4168 c-7 -7 -12 -20 -12 -30 0 -17 2 -17
36 0 25 11 31 18 20 20 -9 2 -16 8 -16 13 0 13 -14 11 -28 -3z M2920 4065 c0
-3 2 -5 5 -5 3 0 5 2 5 5 0 3 -2 5 -5 5 -3 0 -5 -2 -5 -5z M7629 4033 c-66
-57 -154 -163 -134 -163 4 0 70 42 90 57 21 16 84 42 119 48 20 4 39 11 41 16
5 8 -54 79 -66 79 -3 0 -25 -17 -50 -37z m20 -15 c-21 -18 -21 -20 -4 -14 11
4 25 8 30 9 6 1 14 7 18 12 5 6 6 2 3 -8 -3 -10 -6 -23 -6 -28 0 -12 -24 -11
-54 2 l-25 12 22 18 c31 26 45 24 16 -3z m-14 -48 c-3 -5 -10 -10 -16 -10 -5
0 -9 5 -9 10 0 6 7 10 16 10 8 0 12 -4 9 -10z M7670 3995 c0 -3 2 -5 5 -5 3 0
5 2 5 5 0 3 -2 5 -5 5 -3 0 -5 -2 -5 -5z M3272 4035 c-7 -14 -12 -39 -12 -55
0 -37 29 -40 75 -10 l30 20 -25 2 c-14 0 -32 1 -41 0 -12 -1 -16 7 -13 33 3
42 1 43 -14 10z m48 -49 c0 -3 -5 -8 -12 -12 -7 -4 -8 -3 -4 4 7 12 16 16 16
8z M2950 4015 c0 -3 2 -5 5 -5 3 0 5 2 5 5 0 3 -2 5 -5 5 -3 0 -5 -2 -5 -5z
M2984 3988 c10 -6 22 -6 26 -2 5 5 -3 10 -18 11 -22 1 -24 0 -8 -9z M3020
3975 c-7 -9 -8 -15 -2 -15 5 0 12 7 16 15 3 8 4 15 2 15 -2 0 -9 -7 -16 -15z
M3047 3938 c7 -8 10 -18 6 -21 -3 -4 -1 -7 6 -7 17 0 10 32 -9 38 -12 4 -13 3
-3 -10z M3080 3915 c0 -3 2 -5 5 -5 3 0 5 2 5 5 0 3 -2 5 -5 5 -3 0 -5 -2 -5
-5z M3083 3893 c4 -3 10 -3 14 0 3 4 0 7 -7 7 -7 0 -10 -3 -7 -7z M3120 3860
c14 -11 21 -20 16 -20 -5 0 -1 -9 9 -20 10 -11 22 -17 28 -13 5 3 7 2 4 -4 -8
-12 152 -198 170 -197 7 1 10 -2 8 -7 -10 -15 215 -252 339 -356 105 -88 253
-189 263 -179 11 11 -11 39 -43 56 -16 8 -31 18 -34 21 -8 8 -44 22 -53 20 -5
-1 -6 2 -3 7 3 5 -15 24 -39 41 -25 18 -45 37 -45 43 0 6 -3 9 -6 5 -3 -3 -22
9 -41 26 -19 18 -40 32 -46 32 -7 0 -11 8 -9 17 1 9 -5 19 -15 22 -10 3 -29
22 -42 41 -13 19 -31 37 -42 40 -10 3 -21 15 -24 26 -4 11 -14 18 -23 17 -10
-2 -17 4 -17 12 0 17 -37 58 -48 53 -4 -3 -11 6 -16 19 -4 13 -11 22 -15 21
-3 -2 -6 0 -7 5 -1 15 -32 41 -42 35 -5 -3 -7 -2 -4 3 8 14 -80 107 -94 99 -8
-5 -7 0 1 16 10 20 10 22 -1 12 -18 -17 -30 -16 -23 1 3 9 -3 20 -15 28 -12 7
-21 18 -21 23 0 16 -64 75 -80 75 -10 0 -6 -8 10 -20z m45 -30 c3 -5 4 -10 1
-10 -3 0 -8 5 -11 10 -3 6 -4 10 -1 10 3 0 8 -4 11 -10z m55 -75 c0 -3 -2 -5
-5 -5 -3 0 -5 2 -5 5 0 3 2 5 5 5 3 0 5 -2 5 -5z m710 -660 c0 -3 -2 -5 -5 -5
-3 0 -5 2 -5 5 0 3 2 5 5 5 3 0 5 -2 5 -5z M3600 3865 c0 -3 2 -5 5 -5 3 0 5
2 5 5 0 3 -2 5 -5 5 -3 0 -5 -2 -5 -5z M3584 3836 c-14 -37 27 -61 64 -37 10
6 9 10 -7 14 -12 3 -20 11 -19 18 4 19 -31 23 -38 5z M3680 3815 c0 -3 2 -5 5
-5 3 0 5 2 5 5 0 3 -2 5 -5 5 -3 0 -5 -2 -5 -5z M8043 3656 c-77 -19 -106 -52
-67 -74 14 -8 13 -13 -7 -47 -32 -53 -39 -190 -14 -264 64 -194 370 -271 502
-128 55 60 83 123 90 206 4 54 10 72 23 76 23 7 75 63 67 72 -4 3 -18 1 -32
-5 -56 -26 -95 -15 -185 49 -158 114 -259 145 -377 115z m176 -61 c93 -32 186
-105 136 -105 -24 0 -83 -59 -95 -95 -34 -103 72 -209 175 -175 47 16 52 9 20
-28 -83 -99 -261 -109 -367 -22 -116 96 -117 298 -2 407 40 37 68 41 133 18z
m249 -187 c-3 -29 -6 -33 -33 -33 -21 0 -31 5 -33 18 -6 32 6 47 38 47 29 0
31 -2 28 -32z M3480 3485 c0 -3 2 -5 5 -5 3 0 5 2 5 5 0 3 -2 5 -5 5 -3 0 -5
-2 -5 -5z M7297 3363 c-16 -3 -25 -9 -21 -15 4 -6 -1 -8 -16 -3 -15 5 -20 4
-16 -4 4 -6 2 -9 -6 -6 -21 8 -93 -65 -120 -123 -14 -28 -28 -49 -31 -45 -4 3
-7 -1 -7 -10 0 -8 -3 -24 -6 -34 -4 -13 -3 -15 4 -4 8 11 10 11 15 0 3 -9 6
-6 6 7 1 12 12 42 26 68 13 25 22 46 18 46 -3 0 7 10 23 22 16 12 31 26 34 30
18 25 100 48 175 48 l80 1 -40 14 c-39 15 -63 16 -118 8z M3640 3325 c0 -3 2
-5 5 -5 3 0 5 2 5 5 0 3 -2 5 -5 5 -3 0 -5 -2 -5 -5z M3970 3065 c0 -3 2 -5 5
-5 3 0 5 2 5 5 0 3 -2 5 -5 5 -3 0 -5 -2 -5 -5z M3990 3055 c0 -3 2 -5 5 -5 3
0 5 2 5 5 0 3 -2 5 -5 5 -3 0 -5 -2 -5 -5z M5580 3045 c0 -3 2 -5 5 -5 3 0 5
2 5 5 0 3 -2 5 -5 5 -3 0 -5 -2 -5 -5z M5585 3000 c3 -5 8 -10 11 -10 3 0 2 5
-1 10 -3 6 -8 10 -11 10 -3 0 -2 -4 1 -10z M5602 2945 c0 -16 2 -22 5 -12 2 9
2 23 0 30 -3 6 -5 -1 -5 -18z M6993 2933 c4 -3 10 -3 14 0 3 4 0 7 -7 7 -7 0
-10 -3 -7 -7z M6950 2913 c-14 -7 -35 -13 -47 -13 -26 0 -201 -75 -225 -97 -9
-8 -22 -12 -29 -7 -8 4 -10 3 -5 -4 4 -7 1 -12 -7 -12 -8 0 -27 -11 -43 -25
-50 -44 -54 -46 -66 -39 -7 5 -8 3 -3 -6 6 -10 4 -12 -8 -7 -9 3 -16 3 -16 -1
3 -20 -2 -32 -14 -32 -18 0 -49 -35 -40 -44 4 -4 0 -4 -8 -1 -10 4 -28 -7 -51
-32 -75 -82 -195 -189 -230 -206 -21 -10 -38 -22 -38 -27 0 -6 -7 -10 -15 -10
-8 0 -15 -4 -15 -8 0 -5 -6 -9 -12 -9 -7 0 -35 -10 -63 -23 -27 -13 -58 -23
-67 -22 -11 0 -15 -4 -11 -14 4 -10 1 -15 -8 -13 -20 4 -79 -11 -79 -20 0 -4
-8 -7 -17 -8 -70 -5 -81 -8 -70 -22 10 -12 9 -12 -10 -3 -25 14 -36 15 -29 4
3 -5 -9 -6 -26 -4 -19 3 -33 0 -39 -9 -11 -19 -460 -21 -466 -2 -2 7 -10 10
-18 7 -7 -3 -16 -1 -20 5 -3 6 -14 11 -23 11 -15 0 -15 -2 -2 -10 21 -14 3
-12 -23 2 -35 19 -151 57 -159 51 -5 -2 -8 2 -8 10 0 9 -14 17 -36 22 -20 3
-33 9 -30 12 7 8 -62 35 -86 34 -10 0 -18 4 -18 8 0 5 -9 11 -21 14 -63 17 82
-76 198 -125 143 -62 285 -89 468 -90 242 -1 443 46 658 153 109 54 171 102
297 229 191 191 388 308 628 370 23 6 42 14 42 19 0 12 -63 8 -90 -6z m-220
-98 c0 -3 -2 -5 -5 -5 -3 0 -5 2 -5 5 0 3 2 5 5 5 3 0 5 -2 5 -5z m-310 -209
c0 -3 -5 -8 -12 -12 -7 -4 -8 -3 -4 4 7 12 16 16 16 8z m-240 -221 c0 -3 -2
-5 -5 -5 -3 0 -5 2 -5 5 0 3 2 5 5 5 3 0 5 -2 5 -5z M7050 2925 c0 -3 2 -5 5
-5 3 0 5 2 5 5 0 3 -2 5 -5 5 -3 0 -5 -2 -5 -5z M5619 2920 c-6 -18 -3 -60 3
-60 15 0 20 28 9 47 -6 10 -11 16 -12 13z M5590 2865 c0 -3 2 -5 5 -5 3 0 5 2
5 5 0 3 -2 5 -5 5 -3 0 -5 -2 -5 -5z M3945 2600 c17 -114 17 -116 47 -111 4 0
5 -6 2 -14 -4 -10 0 -15 14 -15 11 0 28 -3 38 -7 14 -5 13 0 -8 28 -13 19 -37
59 -52 89 -39 77 -49 85 -41 30z m75 -125 c0 -3 -2 -5 -5 -5 -3 0 -5 2 -5 5 0
3 2 5 5 5 3 0 5 -2 5 -5z M4270 2629 c0 -15 46 -159 54 -166 6 -6 86 28 86 37
0 4 -10 14 -22 23 -34 22 -82 69 -101 97 -11 16 -17 19 -17 9z M3204 2453 c9
-17 20 -35 26 -38 6 -4 7 -11 4 -17 -4 -7 -2 -8 4 -4 8 5 8 15 0 37 -6 16 -13
28 -16 25 -3 -3 -11 2 -19 12 -10 12 -10 9 1 -15z M10010 2420 c-32 -32 -20
-79 34 -129 30 -28 43 -23 26 9 -19 35 1 46 52 29 32 -10 69 -40 140 -111 53
-54 99 -98 102 -98 25 0 -85 172 -154 241 -77 77 -158 101 -200 59z M3550
2343 c0 -5 11 -9 25 -9 14 -1 25 2 25 7 0 5 -11 9 -25 9 -14 0 -25 -3 -25 -7z
M10446 1955 c4 -8 11 -15 16 -15 6 0 5 6 -2 15 -7 8 -14 15 -16 15 -2 0 -1 -7
2 -15z M10480 1915 c0 -3 2 -5 5 -5 3 0 5 2 5 5 0 3 -2 5 -5 5 -3 0 -5 -2 -5
-5z M10490 1895 c0 -3 2 -5 5 -5 3 0 5 2 5 5 0 3 -2 5 -5 5 -3 0 -5 -2 -5 -5z
M10510 1860 c6 -11 13 -20 16 -20 2 0 0 9 -6 20 -6 11 -13 20 -16 20 -2 0 0
-9 6 -20z M10530 1820 c0 -7 3 -10 7 -7 3 4 3 10 0 14 -4 3 -7 0 -7 -7z
M10560 1785 c0 -3 2 -5 5 -5 3 0 5 2 5 5 0 3 -2 5 -5 5 -3 0 -5 -2 -5 -5z
M10575 1760 c3 -5 8 -10 11 -10 3 0 2 5 -1 10 -3 6 -8 10 -11 10 -3 0 -2 -4 1
-10z M10590 1735 c0 -3 2 -5 5 -5 3 0 5 2 5 5 0 3 -2 5 -5 5 -3 0 -5 -2 -5 -5z
M10610 1705 c0 -3 2 -5 5 -5 3 0 5 2 5 5 0 3 -2 5 -5 5 -3 0 -5 -2 -5 -5z
M10620 1685 c0 -3 2 -5 5 -5 3 0 5 2 5 5 0 3 -2 5 -5 5 -3 0 -5 -2 -5 -5z
M6850 8075 c0 -3 2 -5 5 -5 3 0 5 2 5 5 0 3 -2 5 -5 5 -3 0 -5 -2 -5 -5z
M6630 7955 c0 -3 2 -5 5 -5 3 0 5 2 5 5 0 3 -2 5 -5 5 -3 0 -5 -2 -5 -5z
M6798 7885 c-20 -7 -60 -30 -90 -49 -37 -25 -64 -36 -90 -36 -20 0 -40 -5 -44
-11 -4 -8 1 -9 17 -5 22 6 22 6 7 -7 -16 -13 -14 -15 19 -25 29 -9 38 -8 51 4
8 9 23 13 34 11 10 -3 16 -2 13 2 -2 4 18 18 45 32 27 13 50 27 50 32 0 4 10
7 23 7 16 0 18 3 8 9 -10 7 -5 11 18 16 17 4 29 10 26 15 -3 5 5 11 17 13 13
2 3 5 -22 5 -25 0 -62 -5 -82 -13z m-98 -100 c0 -3 -2 -5 -5 -5 -3 0 -5 2 -5
5 0 3 2 5 5 5 3 0 5 -2 5 -5z m-30 -10 c0 -3 -2 -5 -5 -5 -3 0 -5 2 -5 5 0 3
2 5 5 5 3 0 5 -2 5 -5z m-50 -10 c0 -3 -2 -5 -5 -5 -3 0 -5 2 -5 5 0 3 2 5 5
5 3 0 5 -2 5 -5z M6550 7805 c0 -3 2 -5 5 -5 3 0 5 2 5 5 0 3 -2 5 -5 5 -3 0
-5 -2 -5 -5z M6499 7653 c-37 -42 -51 -123 -33 -190 6 -22 34 -33 34 -14 0 5
23 35 51 65 54 59 47 76 -11 26 -19 -16 -38 -29 -42 -30 -14 0 -8 80 8 111 19
37 14 57 -7 32z M7440 8210 c0 -7 3 -10 7 -7 3 4 3 10 0 14 -4 3 -7 0 -7 -7z
M7246 8093 c-9 -71 9 -123 54 -152 14 -9 21 -11 17 -4 -6 9 -3 11 7 7 9 -3 13
-11 9 -18 -4 -6 1 -5 11 3 16 14 15 18 -27 56 -45 41 -51 56 -60 140 -2 20 -5
9 -11 -32z M8220 7675 c0 -3 2 -5 5 -5 3 0 5 2 5 5 0 3 -2 5 -5 5 -3 0 -5 -2
-5 -5z M8240 7665 c0 -3 2 -5 5 -5 3 0 5 2 5 5 0 3 -2 5 -5 5 -3 0 -5 -2 -5
-5z M11519 7126 c-3 -3 -30 -7 -59 -7 -38 -1 -48 -4 -36 -11 9 -5 16 -14 16
-21 0 -8 -3 -7 -9 2 -6 10 -19 12 -45 7 -20 -4 -34 -11 -31 -16 3 -4 -30 -15
-73 -24 -42 -9 -95 -21 -117 -27 -22 -6 -65 -17 -96 -24 -31 -7 -82 -22 -113
-34 -31 -11 -68 -21 -81 -21 -14 0 -25 -4 -25 -9 0 -10 -84 -41 -111 -41 -10
0 -19 -5 -21 -11 -2 -6 -17 -11 -32 -11 -15 0 -23 -4 -17 -7 6 -4 -19 -18 -56
-30 -38 -13 -75 -29 -83 -36 -8 -8 -28 -17 -45 -21 -16 -4 -39 -13 -50 -20
-11 -8 -29 -14 -42 -14 -12 0 -25 -4 -28 -10 -6 -10 -93 -53 -110 -54 -5 -1
-12 -3 -15 -6 -8 -8 -42 -27 -110 -61 -58 -29 -121 -69 -108 -69 3 0 47 22 99
49 52 28 146 73 209 101 63 29 138 62 165 75 46 21 154 65 250 102 22 9 54 22
72 29 17 8 36 14 42 14 6 0 19 4 29 10 20 11 193 65 242 75 19 4 41 12 48 18
7 5 15 7 18 5 3 -3 22 -2 42 3 78 18 342 59 452 70 127 12 152 19 68 19 -30 0
-95 3 -144 6 -49 4 -92 3 -95 0z m-114 -46 c-28 -12 -37 -12 -30 0 3 6 16 10
28 9 21 0 21 -1 2 -9z M10770 7075 c0 -3 2 -5 5 -5 3 0 5 2 5 5 0 3 -2 5 -5 5
-3 0 -5 -2 -5 -5z M10703 7063 c4 -3 10 -3 14 0 3 4 0 7 -7 7 -7 0 -10 -3 -7
-7z M10310 6985 c0 -3 2 -5 5 -5 3 0 5 2 5 5 0 3 -2 5 -5 5 -3 0 -5 -2 -5 -5z
M10223 6963 c4 -3 10 -3 14 0 3 4 0 7 -7 7 -7 0 -10 -3 -7 -7z M10150 6945 c0
-3 2 -5 5 -5 3 0 5 2 5 5 0 3 -2 5 -5 5 -3 0 -5 -2 -5 -5z M10033 6913 c4 -3
10 -3 14 0 3 4 0 7 -7 7 -7 0 -10 -3 -7 -7z M10070 6905 c0 -3 2 -5 5 -5 3 0
5 2 5 5 0 3 -2 5 -5 5 -3 0 -5 -2 -5 -5z M10400 6765 c0 -3 2 -5 5 -5 3 0 5 2
5 5 0 3 -2 5 -5 5 -3 0 -5 -2 -5 -5z M9994 6538 c-4 -7 -3 -8 4 -4 12 7 16 16
8 16 -3 0 -8 -5 -12 -12z M9960 6525 c0 -3 2 -5 5 -5 3 0 5 2 5 5 0 3 -2 5 -5
5 -3 0 -5 -2 -5 -5z M9920 6505 c0 -3 2 -5 5 -5 3 0 5 2 5 5 0 3 -2 5 -5 5 -3
0 -5 -2 -5 -5z M9850 6465 c0 -3 2 -5 5 -5 3 0 5 2 5 5 0 3 -2 5 -5 5 -3 0 -5
-2 -5 -5z M9700 6375 c0 -3 2 -5 5 -5 3 0 5 2 5 5 0 3 -2 5 -5 5 -3 0 -5 -2
-5 -5z M9585 6324 c-49 -24 -91 -48 -93 -54 -2 -5 -10 -10 -18 -10 -8 0 -14
-5 -14 -11 0 -5 -6 -7 -12 -3 -7 4 -9 3 -5 -1 4 -5 -3 -15 -15 -22 -13 -7 -18
-12 -12 -13 6 0 28 11 48 25 20 14 39 25 41 25 2 0 38 20 78 45 41 25 79 45
85 45 6 0 14 5 17 10 10 16 -6 11 -100 -36z M10480 6235 c0 -3 2 -5 5 -5 3 0
5 2 5 5 0 3 -2 5 -5 5 -3 0 -5 -2 -5 -5z M10466 6203 c-6 -14 -5 -15 5 -6 7 7
10 15 7 18 -3 3 -9 -2 -12 -12z M9360 6205 c0 -3 2 -5 5 -5 3 0 5 2 5 5 0 3
-2 5 -5 5 -3 0 -5 -2 -5 -5z M9380 6195 c0 -3 2 -5 5 -5 3 0 5 2 5 5 0 3 -2 5
-5 5 -3 0 -5 -2 -5 -5z M10063 6033 c4 -3 10 -3 14 0 3 4 0 7 -7 7 -7 0 -10
-3 -7 -7z M10020 6019 c0 -5 -4 -7 -10 -4 -6 3 -7 -1 -4 -10 5 -12 9 -13 20
-4 16 13 18 29 4 29 -5 0 -10 -5 -10 -11z M7860 4555 c0 -3 2 -5 5 -5 3 0 5 2
5 5 0 3 -2 5 -5 5 -3 0 -5 -2 -5 -5z M7846 4523 c-6 -14 -5 -15 5 -6 7 7 10
15 7 18 -3 3 -9 -2 -12 -12z M6455 7075 c11 -9 29 -23 39 -31 20 -13 20 -14
-3 -54 -25 -46 -31 -115 -12 -146 11 -17 12 -15 7 12 -6 39 8 95 33 125 l18
23 28 -48 c22 -37 28 -60 27 -99 0 -27 6 -63 14 -78 33 -65 10 -86 -53 -48
-45 28 -52 19 -10 -14 72 -54 124 -27 92 49 -8 20 -15 61 -15 91 0 87 -85 208
-160 227 -24 7 -25 7 -5 -9z M7452 6628 c-18 -18 -14 -66 7 -87 14 -14 34 -18
77 -19 56 0 58 0 34 13 -14 8 -41 14 -61 15 -40 0 -57 27 -38 61 16 31 5 41
-19 17z M7185 7111 c-50 -12 -103 -41 -146 -80 l-42 -37 49 -50 c70 -71 112
-89 209 -89 83 0 76 -3 190 68 11 6 22 13 24 14 2 1 -11 25 -28 52 -41 63 -91
101 -155 118 -55 14 -57 14 -101 4z m55 -41 c-10 -6 -11 -10 -2 -10 19 0 14
-38 -7 -50 -15 -7 -23 -6 -35 5 -19 19 -11 44 18 55 29 12 44 12 26 0z m-79
-26 c-25 -32 -26 -55 -6 -94 27 -53 115 -60 151 -12 21 27 17 89 -6 112 -36
36 4 21 55 -21 72 -59 79 -68 57 -92 -52 -58 -188 -82 -258 -45 -40 22 -94 78
-94 98 0 14 93 80 113 80 5 0 -1 -12 -12 -26z M8865 6410 c-16 -7 -17 -9 -3
-9 9 -1 20 4 23 9 7 11 7 11 -20 0z M8895 6400 c-3 -5 0 -7 8 -4 8 3 38 -18
72 -51 32 -30 60 -55 63 -55 5 0 -28 51 -42 65 -50 48 -89 65 -101 45z M7810
5600 c0 -5 5 -10 11 -10 5 0 7 5 4 10 -3 6 -8 10 -11 10 -2 0 -4 -4 -4 -10z
M7830 5575 c0 -3 2 -5 5 -5 3 0 5 2 5 5 0 3 -2 5 -5 5 -3 0 -5 -2 -5 -5z
M7840 5550 c0 -7 3 -10 7 -7 3 4 3 10 0 14 -4 3 -7 0 -7 -7z M7860 5521 c0 -5
5 -13 10 -16 6 -3 10 -2 10 4 0 5 -4 13 -10 16 -5 3 -10 2 -10 -4z M7880 5485
c0 -3 2 -5 5 -5 3 0 5 2 5 5 0 3 -2 5 -5 5 -3 0 -5 -2 -5 -5z M7360 5242 c0
-18 17 -23 42 -13 16 7 18 10 6 10 -9 1 -23 4 -32 7 -9 3 -16 1 -16 -4z M7205
6417 c-19 -15 -13 -37 10 -37 8 0 24 -19 36 -42 60 -119 127 -159 277 -166 58
-2 114 0 140 7 53 15 116 71 157 140 17 28 35 49 42 46 23 -8 23 14 1 30 -20
14 -24 14 -34 0 -20 -27 -189 -41 -323 -26 -133 14 -251 37 -265 51 -13 13
-19 13 -41 -3z m182 -63 c93 -18 294 -24 376 -12 l47 8 -16 -26 c-27 -40 -52
-47 -169 -52 -185 -7 -355 39 -355 96 0 8 6 12 15 8 8 -3 54 -13 102 -22z
M6490 6175 c0 -3 2 -5 5 -5 3 0 5 2 5 5 0 3 -2 5 -5 5 -3 0 -5 -2 -5 -5z
M6570 6085 c0 -3 2 -5 5 -5 3 0 5 2 5 5 0 3 -2 5 -5 5 -3 0 -5 -2 -5 -5z
M6050 5925 c0 -3 2 -5 5 -5 3 0 5 2 5 5 0 3 -2 5 -5 5 -3 0 -5 -2 -5 -5z
M6073 5913 c4 -3 10 -3 14 0 3 4 0 7 -7 7 -7 0 -10 -3 -7 -7z M6810 5916 c0
-3 9 -10 20 -16 11 -6 20 -8 20 -6 0 3 -9 10 -20 16 -11 6 -20 8 -20 6z M6113
5868 c27 -36 61 -101 83 -157 13 -32 14 -32 8 -6 -3 16 -14 48 -25 72 -10 23
-19 45 -19 48 0 10 -54 75 -63 75 -4 0 3 -15 16 -32z M6870 5875 c0 -3 2 -5 5
-5 3 0 5 2 5 5 0 3 -2 5 -5 5 -3 0 -5 -2 -5 -5z M6900 5865 c0 -3 2 -5 5 -5 3
0 5 2 5 5 0 3 -2 5 -5 5 -3 0 -5 -2 -5 -5z M7120 5715 c0 -3 2 -5 5 -5 3 0 5
2 5 5 0 3 -2 5 -5 5 -3 0 -5 -2 -5 -5z M6210 5650 c0 -7 3 -10 7 -7 3 4 3 10
0 14 -4 3 -7 0 -7 -7z M6221 5604 c0 -11 3 -14 6 -6 3 7 2 16 -1 19 -3 4 -6
-2 -5 -13z M7200 5555 c0 -3 2 -5 5 -5 3 0 5 2 5 5 0 3 -2 5 -5 5 -3 0 -5 -2
-5 -5z M7270 5555 c0 -3 2 -5 5 -5 3 0 5 2 5 5 0 3 -2 5 -5 5 -3 0 -5 -2 -5
-5z M5980 4980 c0 -7 3 -10 7 -7 3 4 3 10 0 14 -4 3 -7 0 -7 -7z M5970 4955
c0 -3 2 -5 5 -5 3 0 5 2 5 5 0 3 -2 5 -5 5 -3 0 -5 -2 -5 -5z M6004 4842 c1
-26 11 -50 29 -72 39 -46 39 -35 2 43 -33 67 -33 67 -31 29z M5810 4315 c0 -3
2 -5 5 -5 3 0 5 2 5 5 0 3 -2 5 -5 5 -3 0 -5 -2 -5 -5z M6560 4665 c0 -3 2 -5
5 -5 3 0 5 2 5 5 0 3 -2 5 -5 5 -3 0 -5 -2 -5 -5z M6340 4015 c32 -18 41 -18
34 0 -4 8 -18 15 -33 15 l-26 -1 25 -14z M6390 3985 c0 -3 2 -5 5 -5 3 0 5 2
5 5 0 3 -2 5 -5 5 -3 0 -5 -2 -5 -5z M6913 3843 c4 -3 10 -3 14 0 3 4 0 7 -7
7 -7 0 -10 -3 -7 -7z M6250 3450 c0 -7 3 -10 7 -7 3 4 3 10 0 14 -4 3 -7 0 -7
-7z M6740 3435 c0 -3 2 -5 5 -5 3 0 5 2 5 5 0 3 -2 5 -5 5 -3 0 -5 -2 -5 -5z
M6760 3405 c0 -3 2 -5 5 -5 3 0 5 2 5 5 0 3 -2 5 -5 5 -3 0 -5 -2 -5 -5z
M6785 3360 c3 -5 8 -10 11 -10 3 0 2 5 -1 10 -3 6 -8 10 -11 10 -3 0 -2 -4 1
-10z M6810 3320 c6 -11 13 -20 16 -20 2 0 0 9 -6 20 -6 11 -13 20 -16 20 -2 0
0 -9 6 -20z M6840 3275 c0 -3 2 -5 5 -5 3 0 5 2 5 5 0 3 -2 5 -5 5 -3 0 -5 -2
-5 -5z M4516 1880 c-16 -5 -34 -6 -39 -3 -6 3 -7 1 -3 -5 4 -7 20 -12 35 -12
15 0 50 -11 77 -25 61 -31 74 -32 43 -2 -23 22 -75 58 -81 56 -2 0 -16 -5 -32
-9z m41 -7 c-4 -3 -10 -3 -14 0 -3 4 0 7 7 7 7 0 10 -3 7 -7z M4824 1740 c-33
-13 -41 -32 -9 -20 15 6 38 10 53 10 21 0 24 2 12 10 -18 12 -28 12 -56 0z
M3150 5910 c0 -14 7 -35 15 -46 14 -18 14 -18 15 0 0 12 5 16 15 12 11 -4 15
1 15 19 0 14 5 25 11 25 5 0 7 5 4 10 -4 6 -22 9 -41 8 -29 -2 -34 -6 -34 -28z
M3033 5813 c-7 -3 -13 -17 -13 -31 0 -22 2 -24 11 -12 7 11 9 0 5 -40 -5 -44
-4 -50 4 -30 15 33 9 118 -7 113z M3040 5630 c0 -19 3 -21 12 -12 9 9 9 15 0
24 -9 9 -12 7 -12 -12z M3020 5623 c-4 -21 -7 -33 -10 -35 -7 -8 -7 -365 1
-378 5 -9 9 28 9 95 0 123 15 246 31 255 11 7 2 40 -11 40 -5 0 -11 8 -13 18
-3 9 -6 11 -7 5z M2871 4834 c0 -11 3 -14 6 -6 3 7 2 16 -1 19 -3 4 -6 -2 -5
-13z M2833 4803 c4 -3 10 -3 14 0 3 4 0 7 -7 7 -7 0 -10 -3 -7 -7z M2792 4760
c0 -14 2 -19 5 -12 2 6 2 18 0 25 -3 6 -5 1 -5 -13z M2760 4725 c0 -3 2 -5 5
-5 3 0 5 2 5 5 0 3 -2 5 -5 5 -3 0 -5 -2 -5 -5z M2720 4685 c0 -3 2 -5 5 -5 3
0 5 2 5 5 0 3 -2 5 -5 5 -3 0 -5 -2 -5 -5z M2620 4585 c0 -3 2 -5 5 -5 3 0 5
2 5 5 0 3 -2 5 -5 5 -3 0 -5 -2 -5 -5z M10525 4480 c-3 -5 -1 -10 4 -10 6 0
11 5 11 10 0 6 -2 10 -4 10 -3 0 -8 -4 -11 -10z M10950 4262 c0 -9 59 -36 77
-35 9 1 11 -8 7 -26 -4 -20 -3 -23 5 -11 20 27 11 45 -29 63 -44 19 -60 21
-60 9z M1980 3925 c0 -3 2 -5 5 -5 3 0 5 2 5 5 0 3 -2 5 -5 5 -3 0 -5 -2 -5
-5z M2000 3925 c0 -3 2 -5 5 -5 3 0 5 2 5 5 0 3 -2 5 -5 5 -3 0 -5 -2 -5 -5z
M1952 3880 c0 -14 2 -19 5 -12 2 6 2 18 0 25 -3 6 -5 1 -5 -13z M1940 3845 c0
-3 2 -5 5 -5 3 0 5 2 5 5 0 3 -2 5 -5 5 -3 0 -5 -2 -5 -5z M11457 2820 c-3
-13 0 -20 9 -20 8 0 11 -7 8 -17 -5 -15 -4 -16 5 -3 15 21 14 60 -3 60 -7 0
-16 -9 -19 -20z M11434 2718 c-4 -7 -3 -8 4 -4 12 7 16 16 8 16 -3 0 -8 -5
-12 -12z M11373 2693 c4 -3 10 -3 14 0 3 4 0 7 -7 7 -7 0 -10 -3 -7 -7z
M11350 2651 c0 -6 4 -13 10 -16 6 -3 7 1 4 9 -7 18 -14 21 -14 7z M11330 2625
c0 -3 2 -5 5 -5 3 0 5 2 5 5 0 3 -2 5 -5 5 -3 0 -5 -2 -5 -5z M11325 2590 c3
-5 8 -10 11 -10 3 0 2 5 -1 10 -3 6 -8 10 -11 10 -3 0 -2 -4 1 -10z M865 2533
c-3 -15 -1 -31 5 -37 8 -8 9 -6 5 9 -5 15 0 12 19 -10 14 -16 26 -36 26 -42 0
-7 5 -13 10 -13 16 0 12 27 -10 69 -25 49 -46 58 -55 24z M11280 2555 c0 -3 2
-5 5 -5 3 0 5 2 5 5 0 3 -2 5 -5 5 -3 0 -5 -2 -5 -5z M11300 2545 c0 -3 2 -5
5 -5 3 0 5 2 5 5 0 3 -2 5 -5 5 -3 0 -5 -2 -5 -5z M11280 2515 c0 -3 2 -5 5
-5 3 0 5 2 5 5 0 3 -2 5 -5 5 -3 0 -5 -2 -5 -5z M880 2475 c0 -3 2 -5 5 -5 3
0 5 2 5 5 0 3 -2 5 -5 5 -3 0 -5 -2 -5 -5z M11250 2475 c0 -3 2 -5 5 -5 3 0 5
2 5 5 0 3 -2 5 -5 5 -3 0 -5 -2 -5 -5z M950 2420 c0 -7 3 -10 7 -7 3 4 3 10 0
14 -4 3 -7 0 -7 -7z M11190 2405 c0 -3 2 -5 5 -5 3 0 5 2 5 5 0 3 -2 5 -5 5
-3 0 -5 -2 -5 -5z M963 2393 c4 -3 10 -3 14 0 3 4 0 7 -7 7 -7 0 -10 -3 -7 -7z
M990 2375 c0 -3 2 -5 5 -5 3 0 5 2 5 5 0 3 -2 5 -5 5 -3 0 -5 -2 -5 -5z
M11140 2355 c0 -3 2 -5 5 -5 3 0 5 2 5 5 0 3 -2 5 -5 5 -3 0 -5 -2 -5 -5z
M993 2343 c4 -3 10 -3 14 0 3 4 0 7 -7 7 -7 0 -10 -3 -7 -7z M11096 2341 c-4
-7 -5 -15 -2 -18 9 -9 19 4 14 18 -4 11 -6 11 -12 0z M11120 2330 c0 -7 3 -10
7 -7 3 4 3 10 0 14 -4 3 -7 0 -7 -7z M1000 2315 c0 -3 2 -5 5 -5 3 0 5 2 5 5
0 3 -2 5 -5 5 -3 0 -5 -2 -5 -5z M1020 2315 c0 -3 2 -5 5 -5 3 0 5 2 5 5 0 3
-2 5 -5 5 -3 0 -5 -2 -5 -5z M11073 2303 c4 -3 10 -3 14 0 3 4 0 7 -7 7 -7 0
-10 -3 -7 -7z M1040 2290 c0 -7 3 -10 7 -7 3 4 3 10 0 14 -4 3 -7 0 -7 -7z
M1055 2240 c-3 -6 1 -7 9 -4 18 7 21 14 7 14 -6 0 -13 -4 -16 -10z M1070 2218
c0 -4 7 -8 15 -8 8 0 15 4 15 8 0 5 -7 9 -15 9 -8 0 -15 -4 -15 -9z M10983
2213 c4 -3 10 -3 14 0 3 4 0 7 -7 7 -7 0 -10 -3 -7 -7z M10960 2195 c0 -3 2
-5 5 -5 3 0 5 2 5 5 0 3 -2 5 -5 5 -3 0 -5 -2 -5 -5z M1169 2124 c23 -26 41
-51 41 -55 0 -5 7 -6 15 -3 10 4 15 0 15 -15 0 -12 4 -21 10 -21 17 0 -6 45
-28 55 -12 5 -22 14 -22 20 0 14 -48 65 -61 65 -6 0 8 -21 30 -46z M1271 2024
c0 -11 3 -14 6 -6 3 7 2 16 -1 19 -3 4 -6 -2 -5 -13z M1380 1915 c0 -3 2 -5 5
-5 3 0 5 2 5 5 0 3 -2 5 -5 5 -3 0 -5 -2 -5 -5z M1440 1865 c0 -3 2 -5 5 -5 3
0 5 2 5 5 0 3 -2 5 -5 5 -3 0 -5 -2 -5 -5z M1430 1845 c0 -3 2 -5 5 -5 3 0 5
2 5 5 0 3 -2 5 -5 5 -3 0 -5 -2 -5 -5z M1450 1841 c0 -5 7 -11 14 -14 10 -4
13 -1 9 9 -6 15 -23 19 -23 5z M1490 1799 c0 -5 5 -7 10 -4 6 3 10 8 10 11 0
2 -4 4 -10 4 -5 0 -10 -5 -10 -11z M1500 1765 c0 -3 2 -5 5 -5 3 0 5 2 5 5 0
3 -2 5 -5 5 -3 0 -5 -2 -5 -5z M1540 1766 c0 -2 7 -7 16 -10 8 -3 12 -2 9 4
-6 10 -25 14 -25 6z M1590 1685 c0 -3 2 -5 5 -5 3 0 5 2 5 5 0 3 -2 5 -5 5 -3
0 -5 -2 -5 -5z M1680 1640 c0 -7 3 -10 7 -7 3 4 3 10 0 14 -4 3 -7 0 -7 -7z
M1710 1595 c0 -3 2 -5 5 -5 3 0 5 2 5 5 0 3 -2 5 -5 5 -3 0 -5 -2 -5 -5z
M1770 1584 c0 -3 7 -12 15 -20 16 -17 18 -14 9 10 -6 15 -24 23 -24 10z M1810
1550 c0 -5 5 -10 11 -10 5 0 7 5 4 10 -3 6 -8 10 -11 10 -2 0 -4 -4 -4 -10z
M1770 1545 c0 -3 2 -5 5 -5 3 0 5 2 5 5 0 3 -2 5 -5 5 -3 0 -5 -2 -5 -5z
M1920 1475 c0 -3 2 -5 5 -5 3 0 5 2 5 5 0 3 -2 5 -5 5 -3 0 -5 -2 -5 -5z
M1978 1433 c7 -3 16 -2 19 1 4 3 -2 6 -13 5 -11 0 -14 -3 -6 -6z M2050 1385
c0 -3 2 -5 5 -5 3 0 5 2 5 5 0 3 -2 5 -5 5 -3 0 -5 -2 -5 -5z M2080 1365 c0
-3 2 -5 5 -5 3 0 5 2 5 5 0 3 -2 5 -5 5 -3 0 -5 -2 -5 -5z M9840 1365 c0 -3 2
-5 5 -5 3 0 5 2 5 5 0 3 -2 5 -5 5 -3 0 -5 -2 -5 -5z M2126 1338 c16 -12 32
-27 36 -32 4 -6 11 -7 15 -2 9 9 -45 56 -66 56 -7 0 -1 -10 15 -22z M2220
1275 c0 -3 2 -5 5 -5 3 0 5 2 5 5 0 3 -2 5 -5 5 -3 0 -5 -2 -5 -5z M9610 1245
c0 -3 2 -5 5 -5 3 0 5 2 5 5 0 3 -2 5 -5 5 -3 0 -5 -2 -5 -5z M9560 1195 c0
-3 2 -5 5 -5 3 0 5 2 5 5 0 3 -2 5 -5 5 -3 0 -5 -2 -5 -5z M2640 1065 c0 -3 2
-5 5 -5 3 0 5 2 5 5 0 3 -2 5 -5 5 -3 0 -5 -2 -5 -5z M2674 1051 c3 -5 15 -7
26 -4 28 7 25 13 -6 13 -14 0 -23 -4 -20 -9z M2710 1035 c0 -3 2 -5 5 -5 3 0
5 2 5 5 0 3 -2 5 -5 5 -3 0 -5 -2 -5 -5z M9190 1025 c0 -3 2 -5 5 -5 3 0 5 2
5 5 0 3 -2 5 -5 5 -3 0 -5 -2 -5 -5z M8880 945 c0 -3 2 -5 5 -5 3 0 5 2 5 5 0
3 -2 5 -5 5 -3 0 -5 -2 -5 -5z M3390 785 c0 -3 2 -5 5 -5 3 0 5 2 5 5 0 3 -2
5 -5 5 -3 0 -5 -2 -5 -5z M3635 709 c-6 -9 2 -13 19 -10 5 1 17 -6 27 -15 10
-9 23 -14 30 -12 20 7 104 -19 102 -31 -4 -15 6 -14 23 3 21 21 20 22 -53 44
-84 25 -141 34 -148 21z M3880 650 c0 -15 44 -30 51 -18 4 7 9 6 12 -1 3 -7 5
-7 3 1 -2 7 -10 13 -19 13 -8 0 -19 4 -23 8 -11 10 -24 9 -24 -3z M3971 624
c0 -11 3 -14 6 -6 3 7 2 16 -1 19 -3 4 -6 -2 -5 -13z M3998 623 c6 -2 18 -2
25 0 6 3 1 5 -13 5 -14 0 -19 -2 -12 -5z M4063 613 c9 -2 17 -8 17 -13 0 -4
11 -10 25 -12 14 -3 25 -1 25 4 0 5 6 6 13 2 9 -5 9 -4 1 5 -6 7 -31 14 -55
15 -24 2 -36 2 -26 -1z M3998 603 c7 -3 16 -2 19 1 4 3 -2 6 -13 5 -11 0 -14
-3 -6 -6z M4160 599 c0 -5 11 -9 25 -9 14 0 25 2 25 4 0 2 -11 6 -25 8 -14 3
-25 1 -25 -3z M4230 595 c0 -3 2 -5 5 -5 3 0 5 2 5 5 0 3 -2 5 -5 5 -3 0 -5
-2 -5 -5z M4246 581 c-19 -7 -18 -8 4 -14 13 -3 26 -4 29 -2 2 3 -1 5 -8 5 -7
0 -9 5 -6 10 7 11 7 11 -19 1z M4293 575 c0 -7 6 -11 14 -8 7 3 13 6 13 8 0 2
-6 5 -13 8 -8 3 -14 -1 -14 -8z M4160 575 c0 -3 2 -5 5 -5 3 0 5 2 5 5 0 3 -2
5 -5 5 -3 0 -5 -2 -5 -5z M4385 561 c3 -6 22 -11 42 -11 44 0 41 5 -10 14 -27
5 -37 4 -32 -3z M4340 555 c0 -3 2 -5 5 -5 3 0 5 2 5 5 0 3 -2 5 -5 5 -3 0 -5
-2 -5 -5z M4473 553 c4 -3 10 -3 14 0 3 4 0 7 -7 7 -7 0 -10 -3 -7 -7z M4510
555 c0 -3 2 -5 5 -5 3 0 5 2 5 5 0 3 -2 5 -5 5 -3 0 -5 -2 -5 -5z M4650 535
c0 -3 2 -5 5 -5 3 0 5 2 5 5 0 3 -2 5 -5 5 -3 0 -5 -2 -5 -5z M4500 525 c0 -3
2 -5 5 -5 3 0 5 2 5 5 0 3 -2 5 -5 5 -3 0 -5 -2 -5 -5z M4560 525 c0 -3 2 -5
5 -5 3 0 5 2 5 5 0 3 -2 5 -5 5 -3 0 -5 -2 -5 -5z M4580 525 c0 -3 2 -5 5 -5
3 0 5 2 5 5 0 3 -2 5 -5 5 -3 0 -5 -2 -5 -5z M4600 525 c0 -3 2 -5 5 -5 3 0 5
2 5 5 0 3 -2 5 -5 5 -3 0 -5 -2 -5 -5z M4620 525 c0 -3 2 -5 5 -5 3 0 5 2 5 5
0 3 -2 5 -5 5 -3 0 -5 -2 -5 -5z M4710 515 c0 -3 2 -5 5 -5 3 0 5 2 5 5 0 3
-2 5 -5 5 -3 0 -5 -2 -5 -5z M4760 516 c0 -2 7 -6 15 -10 8 -3 15 -1 15 4 0 6
-7 10 -15 10 -8 0 -15 -2 -15 -4z M4810 515 c0 -3 2 -5 5 -5 3 0 5 2 5 5 0 3
-2 5 -5 5 -3 0 -5 -2 -5 -5z M4840 510 c0 -7 3 -10 7 -7 3 4 3 10 0 14 -4 3
-7 0 -7 -7z M4568 503 c7 -3 16 -2 19 1 4 3 -2 6 -13 5 -11 0 -14 -3 -6 -6z
M4930 500 c0 -7 3 -10 7 -7 3 4 3 10 0 14 -4 3 -7 0 -7 -7z M4954 488 c-4 -7
-3 -8 4 -4 7 4 12 9 12 12 0 8 -9 4 -16 -8z M4880 485 c0 -3 2 -5 5 -5 3 0 5
2 5 5 0 3 -2 5 -5 5 -3 0 -5 -2 -5 -5z M4970 475 c0 -3 2 -5 5 -5 3 0 5 2 5 5
0 3 -2 5 -5 5 -3 0 -5 -2 -5 -5z M5235 470 c-3 -5 3 -10 14 -10 12 0 21 5 21
10 0 6 -6 10 -14 10 -8 0 -18 -4 -21 -10z M5373 473 c4 -3 10 -3 14 0 3 4 0 7
-7 7 -7 0 -10 -3 -7 -7z M5408 453 c7 -3 16 -2 19 1 4 3 -2 6 -13 5 -11 0 -14
-3 -6 -6z M5300 445 c0 -3 2 -5 5 -5 3 0 5 2 5 5 0 3 -2 5 -5 5 -3 0 -5 -2 -5
-5z"/>
</g>
</svg>
